<?xml version="1.0" encoding="utf-8"?>
<!-- Generator: Adobe Illustrator 24.3.0, SVG Export Plug-In . SVG Version: 6.00 Build 0)  -->
<svg version="1.1" id="Layer_1" xmlns="http://www.w3.org/2000/svg" xmlns:xlink="http://www.w3.org/1999/xlink" x="0px" y="0px"
	 viewBox="0 0 2341.53 1740.84" style="enable-background:new 0 0 2341.53 1740.84;" xml:space="preserve">
<style type="text/css">
	.st0{fill:#B75A2C;}
	.st1{fill:#FAF7E6;}
	.st2{fill:#E99425;}
	.st3{fill:#F9F7E5;}
	.st4{fill:#FAF7E5;}
	.st5{fill:#171923;}
	.st6{fill:#E6B575;}
	.st7{fill:#E7B673;}
	.st8{fill:#E5B270;}
	.st9{fill:#181A24;}
	.st10{fill:#F9F6E5;}
	.st11{fill:#181A25;}
	.st12{fill:#161721;}
	.st13{fill:#9C5C25;}
	.st14{fill:#F9F6E4;}
	.st15{fill:#191922;}
	.st16{fill:#9F5F25;}
	.st17{fill:#EF9A13;}
	.st18{fill:#171822;}
	.st19{fill:#9D6023;}
	.st20{fill:#F19D0D;}
	.st21{fill:#EB9F24;}
	.st22{fill:#A46720;}
	.st23{fill:#171921;}
	.st24{fill:#21191B;}
	.st25{fill:#F7F3DF;}
	.st26{fill:#E7CB94;}
	.st27{fill:#F5F0E1;}
	.st28{fill:#B76D2D;}
	.st29{fill:#EFDFBC;}
	.st30{fill:#9F6123;}
	.st31{fill:#1A191F;}
	.st32{fill:#A36323;}
	.st33{fill:#E99528;}
	.st34{fill:#EA9524;}
	.st35{fill:#D68B34;}
	.st36{fill:#251E1C;}
	.st37{fill:#222224;}
	.st38{fill:#151722;}
	.st39{fill:#9E6224;}
	.st40{fill:#A26123;}
	.st41{fill:#171820;}
	.st42{fill:#F19C0D;}
	.st43{fill:#A16227;}
	.st44{fill:#E68B24;}
	.st45{fill:#2D1B12;}
	.st46{fill:#A2611F;}
	.st47{fill:#1B181D;}
	.st48{fill:#221817;}
	.st49{fill:#211616;}
	.st50{fill:#2A1C18;}
	.st51{fill:#291D19;}
	.st52{fill:#221513;}
	.st53{fill:#241819;}
	.st54{fill:#201819;}
	.st55{fill:#291C1A;}
	.st56{fill:#1C1412;}
	.st57{fill:#291D1B;}
	.st58{fill:#241A1A;}
	.st59{fill:#251918;}
	.st60{fill:#0E1421;}
	.st61{fill:#0D1321;}
	.st62{fill:#1F1718;}
	.st63{fill:#0E1422;}
	.st64{fill:#10131E;}
	.st65{fill:#0F121E;}
	.st66{fill:#251519;}
	.st67{fill:#221419;}
	.st68{fill:#EEAF4C;}
	.st69{fill:#EAAE4A;}
	.st70{fill:#EEB14F;}
	.st71{fill:#F7F1D6;}
	.st72{fill:#F7F1D7;}
	.st73{fill:#F6E3AE;}
	.st74{fill:#0C1420;}
	.st75{fill:#F6F1D5;}
	.st76{fill:#EAAC4B;}
	.st77{fill:#EAAB48;}
	.st78{fill:#EBAF4B;}
	.st79{fill:#EBAC46;}
	.st80{fill:#161517;}
	.st81{fill:#F8F2D6;}
	.st82{fill:#E6B056;}
	.st83{fill:#F6F0D7;}
	.st84{fill:#F6F1D4;}
	.st85{fill:#E7AC51;}
	.st86{fill:#F6F0D6;}
	.st87{fill:#0F141E;}
	.st88{fill:#0F1420;}
	.st89{fill:#221B17;}
	.st90{fill:#201914;}
	.st91{fill:#3D2D1E;}
	.st92{fill:#1D1A19;}
	.st93{fill:#F6F0D5;}
	.st94{fill:#EEE8C7;}
	.st95{fill:#F4EFD4;}
	.st96{fill:#F7F0D6;}
	.st97{fill:#EAB151;}
	.st98{fill:#FAF6E8;}
	.st99{fill:#171B24;}
	.st100{fill:#171A23;}
	.st101{fill:#F3DFBB;}
	.st102{fill:#DD9939;}
	.st103{fill:#F9F6E9;}
	.st104{fill:#D59F4E;}
	.st105{fill:#1A181F;}
	.st106{fill:#D9993E;}
	.st107{fill:#DF9B39;}
	.st108{fill:#FAF6EA;}
	.st109{fill:#DC9B39;}
	.st110{fill:#1A1921;}
	.st111{fill:#DE9B3A;}
	.st112{fill:#DD9936;}
	.st113{fill:#DE9D3B;}
	.st114{fill:#18181F;}
	.st115{fill:#F9EFDB;}
	.st116{fill:#F7F2DE;}
	.st117{fill:#271913;}
	.st118{fill:#F3DFBD;}
	.st119{fill:#875723;}
	.st120{fill:#DD9A39;}
	.st121{fill:#A72C29;}
	.st122{fill:#D59E49;}
	.st123{fill:#D5A65F;}
	.st124{fill:#D5AD6D;}
	.st125{fill:#D0A763;}
	.st126{fill:#D1A966;}
	.st127{fill:#D3AD6E;}
	.st128{fill:#D2AB67;}
	.st129{fill:#D2AA67;}
	.st130{fill:#D4B277;}
	.st131{fill:#D1AA70;}
	.st132{fill:#D1A663;}
	.st133{fill:#D5AB68;}
	.st134{fill:#D0A55F;}
	.st135{fill:#D1A867;}
	.st136{fill:#D2AE72;}
	.st137{fill:#D2AD6F;}
	.st138{fill:#D3B077;}
	.st139{fill:#D2A968;}
	.st140{fill:#D1A860;}
	.st141{fill:#D1AA6A;}
	.st142{fill:#D2AF75;}
	.st143{fill:#D1A865;}
	.st144{fill:#CFA764;}
	.st145{fill:#CFA760;}
	.st146{fill:#D1AA69;}
	.st147{fill:#CFA866;}
	.st148{fill:#D3AB67;}
	.st149{fill:#CEA05A;}
	.st150{fill:#D3AC6C;}
	.st151{fill:#CEA460;}
	.st152{fill:#D2AA65;}
	.st153{fill:#D1A868;}
	.st154{fill:#D0A96E;}
	.st155{fill:#D3AE71;}
	.st156{fill:#D3B076;}
	.st157{fill:#D1AA68;}
	.st158{fill:#D2AC6E;}
	.st159{fill:#D3AB69;}
	.st160{fill:#D0AC72;}
	.st161{fill:#D4AC67;}
	.st162{fill:#D2AD72;}
	.st163{fill:#CFA563;}
	.st164{fill:#D5B074;}
	.st165{fill:#D0A662;}
	.st166{fill:#D5B17B;}
	.st167{fill:#D0A663;}
	.st168{fill:#D0AD72;}
	.st169{fill:#D3AE73;}
	.st170{fill:#CFA765;}
	.st171{fill:#D1AB6C;}
	.st172{fill:#D1AB6A;}
	.st173{fill:#CFA96C;}
	.st174{fill:#D2AA6E;}
	.st175{fill:#D0A96A;}
	.st176{fill:#D1AB68;}
	.st177{fill:#D1AA6C;}
	.st178{fill:#D1AB66;}
	.st179{fill:#D3AD6D;}
	.st180{fill:#D1A761;}
	.st181{fill:#CFA35E;}
	.st182{fill:#D0A766;}
	.st183{fill:#D1AB6E;}
	.st184{fill:#D0AF71;}
	.st185{fill:#D2AB6A;}
	.st186{fill:#D2AD71;}
	.st187{fill:#D2AD77;}
	.st188{fill:#D3AA6C;}
	.st189{fill:#CEA767;}
	.st190{fill:#F3DEBB;}
	.st191{fill:#926029;}
	.st192{fill:#1D181A;}
	.st193{fill:#A47942;}
	.st194{fill:#A67640;}
	.st195{fill:#A4753F;}
	.st196{fill:#AB7C43;}
	.st197{fill:#AC7A46;}
	.st198{fill:#E09C38;}
	.st199{fill:#F8EDC0;}
	.st200{fill:#AD292A;}
	.st201{fill:#FBF7EA;}
	.st202{fill:#F3DFBC;}
	.st203{fill:#F4E0BD;}
	.st204{fill:#F4DFBC;}
	.st205{fill:#FAF6E7;}
	.st206{fill:#936029;}
	.st207{fill:#D29437;}
	.st208{fill:#FAF7EA;}
	.st209{fill:#1C191C;}
	.st210{fill:#231D1B;}
	.st211{fill:#E7E6D5;}
	.st212{fill:#292323;}
	.st213{fill:#2F2721;}
	.st214{fill:#34261E;}
	.st215{fill:#F7E7B5;}
	.st216{fill:#F7F3E2;}
	.st217{fill:#412E1E;}
	.st218{fill:#FBF7E4;}
	.st219{fill:#221B21;}
	.st220{fill:#1F171B;}
	.st221{fill:#935F27;}
	.st222{fill:#D89C46;}
	.st223{fill:#D6A04E;}
	.st224{fill:#61422F;}
	.st225{fill:#CFA562;}
	.st226{fill:#D2AB73;}
	.st227{fill:#CFAA71;}
	.st228{fill:#CEA55F;}
	.st229{fill:#D1A256;}
	.st230{fill:#D5B06E;}
	.st231{fill:#543C2C;}
	.st232{fill:#4B4942;}
</style>
<rect class="st0" width="2341.53" height="1740.84"/>
<path class="st98" d="M205.17,1029.6c42.7-25.81,85.35-51.68,128.1-77.41c64.48-38.8,129.03-77.49,193.55-116.22
	c1.04-0.63,2.11-1.22,3.15-1.85c13.45-8.27,26.74-8.53,40.45-0.18c30.19,18.39,60.57,36.46,90.88,54.64
	c55.92,33.54,111.88,67.02,167.76,100.63c35.78,21.52,71.44,43.23,107.14,64.88c2.08,1.26,4.03,2.75,6.1,4.04
	c7.13,4.42,10.63,10.69,9.88,19.16c-0.39,9.3-7.13,13.42-14.07,17.57c-65.96,39.49-131.69,79.36-197.65,118.87
	c-27.74,16.62-55.16,33.77-83.16,49.95c-20.48,11.84-41.94,12.94-62.58,0.44c-76.19-46.14-152.16-92.67-228.28-138.94
	c-45.88-27.89-91.59-56.05-137.64-83.67c-5.53-3.32-11.22-6.12-17.64-7.35C208.58,1033.67,205.54,1033.24,205.17,1029.6z"/>
<path class="st99" d="M1413.78,833.74c46.6,26.58,93.21,53.12,139.77,79.76c10.39,5.95,19.63,13.34,26.95,22.97
	c16.48,21.7,13.49,37.07-0.13,56.81c-4.84,7.01-11.44,12.58-18.9,17.03c-35.34,21.08-70.87,41.86-105.82,63.57
	c-16.85,10.47-34.91,15.6-54.26,17.37c-19.75,1.8-39.57,2.51-59.38,1.67c-12.77-0.54-25.52-1.63-38.08-4.39
	c-15.45-3.4-29.12-10.89-42.47-18.82c-52.92-31.47-106.15-62.41-159.54-93.08c-30.66-17.62-61.12-35.57-91.67-53.37
	c-20.81-12.12-41.76-24-62.37-36.44c-13.02-7.86-21.64-19.08-20.54-35.15c0.55-8.07,1.89-16.4,9.04-22.04
	c5.01,0.28,6.03,4.64,7.81,7.97c5.89,11,11.03,22.37,15.92,33.85c2.47,3.22,3.58,7.54,7.73,9.38
	c34.73,19.01,68.68,39.37,103.15,58.83c53.03,29.94,106.08,59.82,159.22,89.56c1.86,1.04,3.63,2.23,5.45,3.33
	c7.03,4.1,13.37,3.21,20.45-0.95c48.19-28.39,95.71-57.89,143.77-86.48c5.23-3.11,9.24-6.87,9.21-13.51
	c2.11-10.22,0.9-20.54,1.02-30.8c0.22-18.15,0-36.31,0.1-54.46C1410.24,841.86,1409.76,837.14,1413.78,833.74z"/>
<path class="st100" d="M952.59,1091.8c15.93,7.77,30.97,17.06,45.77,26.74c2.77,1.81,5.27,4.2,7.47,6.7
	c8.47,9.62,6.99,22.97-3.67,30.14c-9.36,6.29-19.08,12.06-28.73,17.89c-80.66,48.72-161.38,97.35-241.99,146.17
	c-11.02,6.68-22.61,10.33-35.49,10.25c-17.09-0.1-34.18,0.05-51.27-0.02c-2.92-0.01-6.2,0.92-8.55-1.9c0.7-2.67,2.96-3.68,5.1-4.88
	c60.1-33.77,118.31-70.72,177.63-105.82c33.87-20.04,67.3-40.79,101.27-60.66c5.53-3.23,11.13-6.36,16.44-9.94
	c7.39-4.99,12.83-11.23,12.81-20.09c-3.25,5.36-8.69,9.26-14.46,12.72c-92.36,55.35-184.49,111.08-276.83,166.47
	c-24.48,14.69-48.34,15.7-73.33,0.84c-75.77-45.05-152.15-89.07-228.21-133.65c-42.37-24.83-84.87-49.44-127.27-74.22
	c-4.21-2.46-8.49-4.84-12.55-7.54c-11.66-7.77-17.13-18.67-16.1-32.7c0.76-10.4,7.19-15.18,17.45-13.09
	c3.97,0.81,7.37,2.87,10.76,4.92c84.82,51.32,169.42,102.99,254.04,154.65c36.45,22.25,73.22,43.98,109.37,66.71
	c22.56,14.19,44.2,13.44,66.17-0.23c18.39-11.44,37.17-22.23,55.69-33.47c67.29-40.82,134.98-80.98,202.42-121.55
	C929,1108.73,940.95,1100.51,952.59,1091.8z"/>
<path class="st101" d="M1413.78,833.74c-0.2,29.55-0.37,59.09-0.64,88.64c-0.04,4.52,0.78,9.18-1.5,13.47
	c-13.25,12.46-30.31,19.02-45.11,29.1c-10.8,7.36-22.31,13.63-33.53,20.34c-3.63,2.17-7.52,4.82-11.91,2.46
	c-4.29-2.31-3.27-6.83-3.27-10.69c-0.03-104.78-0.13-209.56,0.13-314.34c0.03-11.83,0.9-23.7,0.84-35.57
	c-0.04-7.74,3.28-13.31,9.89-17.28c25.28-15.19,50.6-30.32,75.72-45.77c2.91-1.79,5.98-3.13,9.45-1.34
	c0.15,5.47,0.44,10.93,0.42,16.4c-0.28,82.44-0.61,164.88-0.89,247.32C1413.35,828.9,1413.63,831.32,1413.78,833.74z"/>
<path class="st98" d="M1251.2,1497.23c-1.82-17.1,3.6-31.83,14.86-44.52c7.54-8.5,16.43-15.41,26.14-21.31
	c90.63-55.09,181.26-110.15,271.84-165.32c8.82-5.37,17.99-10.23,26.06-16.77c2.54-5.21,7.82-7.05,12.25-9.95
	c11.12-5.78,18.5,2.35,26.77,7.18c15.21,9.54,30.72,18.59,46.08,27.9c3.35,2.03,7.07,3.69,8.99,7.48c0.81,9.29-5.8,13.58-12.38,17.4
	c-24.23,14.08-48.4,28.25-72.56,42.46c-61.96,36.45-124.22,72.37-186.08,108.99c-19.12,11.32-37.95,23.23-57.9,33.08
	c-28.72,14.18-59.45,19.38-91.28,18.8C1259.09,1502.56,1254.1,1502.24,1251.2,1497.23z"/>
<path class="st102" d="M952.59,1091.8c-2.46,7.14-8.15,11.13-14.26,14.8c-41.58,24.93-83.16,49.86-124.7,74.86
	c-51.21,30.82-102.43,61.61-153.52,92.61c-15.21,9.23-31.02,13.94-48.81,9.66c-6.32-1.52-12.05-4.27-17.53-7.62
	c-96.32-58.75-192.63-117.52-288.95-176.27c-26.29-16.04-52.63-32-78.96-47.98c-3.38-2.05-6.71-4.23-10.79-4.78
	c-6.81-0.92-10.56,1.53-11.63,8.39c-1.88,12.07,1.89,22.31,11.1,30.33c2.73,2.38,6,4.17,9.15,6.01
	c105.31,61.52,210.63,123.02,315.95,184.51c16.06,9.38,32.38,18.34,48.15,28.2c22.8,14.25,45.12,12.32,67.34-0.75
	c19.18-11.29,38.16-22.93,57.23-34.4c63.24-38.01,126.49-76.01,189.73-114.03c10.19-6.13,20.28-12.42,30.53-18.45
	c7.62-4.48,14.66-9.49,18.8-19.21c2.94,15.28-1.8,24.88-13.89,31.96c-30.26,17.72-60.18,36.01-90.23,54.08
	c-56.96,34.27-113.91,68.56-170.87,102.83c-7.05,4.24-14.1,8.51-21.21,12.65c-6.06,3.53-12.15,7.03-19.1,8.57
	c-11.17,1.67-22.28,2.96-33.35-0.95c-8.42-2.98-15.92-7.62-23.54-12.07c-59.7-34.93-119.37-69.88-179.08-104.78
	c-59.18-34.59-118.28-69.34-177.68-103.55c-16.86-9.71-28.23-22.67-32.31-41.88c-3.69-17.36-0.35-25.47,15.01-34.93
	c18.87,2.29,33.46,13.86,48.89,23.21c84.77,51.35,169.31,103.07,253.91,154.7c28.89,17.63,57.75,35.32,86.56,53.08
	c20.46,12.61,41.17,12.35,61.42,0.3c50.31-29.95,100.33-60.37,150.49-90.55c44.16-26.57,88.34-53.09,132.54-79.59
	c5.61-3.36,10.4-7.4,13.17-13.47C952.31,1082.12,952.45,1086.96,952.59,1091.8z"/>
<path class="st103" d="M1243.85,388.89c24.29,14.55,48.56,29.12,72.86,43.64c14.63,8.75,29.3,17.43,43.95,26.14
	c0.88,4.31-2.42,5.96-5.2,7.63c-36.29,21.8-72.41,43.88-109.06,65.09c-5.86,3.39-11.44,2.91-17.28-0.4
	c-79.2-44.85-158.33-89.81-237.78-134.22c-1.07-0.6,0.24,0.19-0.81-0.42c-12.97-7.58-13.09-11.3-0.21-19.26
	c27.4-16.92,55.25-33.11,82.8-49.79c4.27-2.58,8.76-6.2,14.17-1.98c2.29,3.64,1.56,7.7,1.58,11.6c0.08,21.03,0.09,42.07,0,63.1
	c-0.02,4.62,0.39,9.12,1.85,13.49c3.96,15.37,14.05,25.42,28.22,31.49c24.01,10.28,48.83,12.22,74.29,6.3
	c4.45-1.04,8.88-2.18,13.32-3.21c15.55-5.98,28.82-14.31,33.04-31.99c3.3-8.53-0.93-17.9,2.99-26.34
	C1243,389.46,1243.43,389.18,1243.85,388.89z"/>
<path class="st104" d="M1084.21,324.65c-8.96,5.19-17.99,10.26-26.88,15.58c-23.01,13.78-45.95,27.67-68.9,41.54
	c-2.07,1.25-4.39,2.21-5.79,4.41c-0.22,2.85,2.32,3.25,4.01,4.21c31.02,17.58,62.08,35.1,93.12,52.64
	c50.94,28.8,101.88,57.59,152.77,86.47c3.81,2.16,7.02,2.62,11,0.23c38.15-22.9,76.4-45.64,114.59-68.48
	c0.99-0.59,1.67-1.71,2.5-2.58c3.59,1.16,4.9,4.38,6.48,7.29c15.07,27.55,29.17,55.6,43.12,83.73c2.02,4.08,3.81,8.32,3.58,13.07
	c-20.69,11.07-40.04,24.39-60.4,36.01c-8.46,4.83-16.48,10.44-25,15.16c-4.96,2.75-6.36,6.32-6.5,11.77
	c-0.91,35-1.05,70.01-1.04,105.02c0.02,81.93-0.06,163.86-0.05,245.79c0,3.22-0.64,6.59,0.84,9.79c4.07,0.23,6.61-2.19,9.43-3.78
	c23.87-13.47,46.55-28.96,70.65-42.04c3.2-1.74,6.2-3.9,9.87-4.64c-1.51,6.68-7.09,9.65-12.19,12.8
	c-17.59,10.87-35.28,21.57-53,32.25c-27.09,16.33-54.21,32.59-81.35,48.84c-3.91,2.34-7.9,4.57-11.98,6.61
	c-6.48,3.24-12.82,3.44-18.66-1.56c-7.33-19.34-14.75-38.66-21.55-58.19c-2.43-6.97-6.75-11.8-13.29-15.45
	c-75.31-42.04-149.71-85.71-225.21-127.42c-2.54-1.4-5.32-4.45-8.19-2.23c-2.26,1.75-0.62,5.16-0.35,7.83
	c1.13,11.21,2.71,22.38,3.1,33.65c0.12,3.54,1.29,7.5-3.31,9.4c-3.91-1.66-5.8-4.99-7.2-8.72c-3.38-14.79-5.25-29.78-6-44.93
	c-0.28-5.74-3.07-10.16-7.48-13.98c-9.37-8.12-20.07-14.82-27.41-25.15c-2.33-4.66-5.46-9.05-4.9-14.67
	c4.98-0.92,7.8,2.66,11.02,5.33c8.33,6.89,16.34,14.21,25.31,20.48c2.56-3.55,1.61-6.68,1.62-9.59c0.05-95.66,0-191.32,0.14-286.98
	c0.01-8.18-1.59-15.58-5.4-22.76c-6.13-11.57-11.58-23.49-18.16-34.84c-5.5-9.49-10.22-19.37-12.89-30.1
	c-2-10.5,5.29-14.38,12.88-18.04c29.15-11.34,58.02-23.09,84.16-40.8c17.6-11.92,36.01-22.66,55.25-31.87
	c1.35-0.65,2.59-1.6,3.27-3.05c3.2-2.42,6.91-3.21,10.81-3.45c1.96,0.5,3.45,1.58,4.28,3.47
	C1085.15,323.53,1084.89,324.17,1084.21,324.65z"/>
<path class="st105" d="M2179.29,1009.45c7.39,5.47,8,9.69,1.37,15.03c-13.78,11.11-28.64,20.73-43.43,30.42
	c-2.1,1.38-4.46,2.06-6.95,1.89c-4.91-0.32-8.8,2.05-12.65,4.57c-3.04,1.98-6.94,3.55-2.05,7.88c1.91,1.69-0.19,3.43-1.66,4.34
	c-8.03,4.98-16.14,9.83-24.24,14.69c-2.62,1.57-5.38,0.67-8.01,0.02c-5.99-1.48-11.09-0.07-16.42,3.13
	c-41.05,24.62-82.25,48.98-123.43,73.38c-12.59,7.46-25.21,14.87-37.93,22.1c-3.47,1.97-5.42,3.79-2.67,7.73
	c2.07,2.96,0.97,5.74-0.82,8.47c-3.21,4.88-7.32,8.99-11.39,13.09c-2.98,3-4.55,6.19-4.42,10.5c0.55,17.9-7.47,32.3-18.93,45.19
	c-2.77,3.11-6.83,5.61-2.4,10.52c1.39,1.55-0.22,3.5-1.55,4.75c-6.95,6.54-14.9,11.06-24.72,8.86c-4.2-0.94-7.7-0.53-11.47,0.87
	c-22.54,8.35-45.88,12.17-69.86,12.16c-5.59,0-10.82,1.07-16.08,2.87c-11.82,4.04-23.77,7.69-35.65,11.57
	c-5.64,1.84-11.21,3.09-16.77-0.22c-3.92-2.33-7.02,0.17-10.15,1.95c-18.03,10.24-35.99,20.59-54.03,30.8
	c-36.61,20.72-73.3,41.32-109.89,62.08c-41.63,23.63-83.57,46.74-124.65,71.28c-34.06,20.35-70.24,30.45-109.78,28.24
	c-7.08-0.4-14.88,0.03-19.87-6.92c2.19-3.33,5.73-3.25,9.02-3.26c42.99-0.14,81.37-13.53,118.15-35.86
	c89.66-54.42,181.19-105.71,271.65-158.79c9.94-5.83,18.62-8.3,28.25-0.71c4.29,0.84,7.7-1.2,11.04-3.39
	c2.81-1.84,5.59-3.8,7.93-6.15c11.67-11.74,25.37-15.99,42.12-15.27c18.93,0.82,37.44-3.97,55.41-10.22
	c6.48-2.25,10.48-5.64,11.97-13.12c2.83-14.14,11.33-19.3,25.25-16.25c5.12,1.12,8.07-0.5,10.73-4.43
	c5.62-8.32,8.34-17.74,9.11-27.46c0.73-9.16,5.65-14.37,13.68-15.95c12.41-2.44,17.52-9.62,17.1-21.67
	c3.17-6.47,9.63-9.07,15.23-12.55c49.59-30.84,99.79-60.67,149.57-91.21c4.98-3.05,10.24-5.87,9.39-13.08
	c-1.66-5.6-5.45-9.32-10.34-12.24c-15.97-9.52-32.2-18.66-47.65-28.95c-6.91-4.6-13.54-0.85-20.11-2.36
	c0.16-2.66,0.5-5.33,0.44-7.99c-0.08-3.63,1.22-6.33,4.44-8.07c4.51-2.07,8.26,0.1,11.92,2.28c19.08,11.35,38.05,22.88,57.14,34.21
	c10.58,6.28,16.76,14.75,16.05,27.44c-0.33,5.95,1.49,8.03,7.25,4.39c6.63-4.2,13.38-7.4,15.17-16.75c1.51-7.89,9.93-10.7,20.18-8.8
	c3.49,0.7,6.75-0.18,9.49-2.16C2144.75,1030.45,2163.16,1021.72,2179.29,1009.45z"/>
<path class="st98" d="M1986.27,1017.77c7.67-6.13,14.51-5.15,22.72,0.32c15.38,10.26,31.61,19.25,47.56,28.64
	c5.45,3.21,9.7,7.14,10.39,13.83c-2.07,4.02-5.81,6.12-9.49,8.32c-54.2,32.39-108.52,64.57-162.2,97.81
	c-10.69,6.62-21.69,7.21-33.37,6.3c-4.62-0.36-7.91-2.97-10.44-6.64c-10.78-15.62-25.74-25.71-43.06-32.73
	c-0.85-0.34-1.72-0.65-2.51-1.12c-2.55-1.5-6.2-2.33-5.83-6.15c0.36-3.79,3.68-4.41,6.82-4.79c25.36-14.52,50.78-28.93,76.07-43.58
	C1917.43,1058.01,1951.83,1037.85,1986.27,1017.77z"/>
<path class="st106" d="M1806.86,1121.57c-1.4,1.92-4.38,2.24-5.16,5.53c8.25,3.98,16.98,7.3,25.01,12.05
	c11.22,6.63,20.94,14.78,27.57,26.12c2.09,3.58,4.59,4.49,8.74,4.87c14.33,1.31,26.11-3.24,38.33-10.8
	c52.37-32.4,105.36-63.78,158.15-95.5c2.32-1.39,4.56-3.09,7.43-3.27c2.43,7.65-1.71,11.54-7.78,15.2
	c-49.83,30.08-99.55,60.36-149.27,90.62c-5.98,3.64-11.78,7.58-17.67,11.39c-3.55,5.13-9.39,5.13-14.61,6.29
	c-7.28,1.62-10.81,5.17-12.44,13.2c-4.55,22.41-16.26,40.02-37.64,50.53c-8.37,4.11-15.77,9.98-24.77,13.26
	c-20.57,7.51-41.77,11.16-63.51,11.07c-10.08-0.04-18.1,3.09-25.95,9.03c-12.06,9.11-22.17,19.6-28.39,33.53
	c-0.88-0.22-2.06-0.15-2.6-0.7c-6.99-7.23-13.34-4.1-20.61,0.19c-38.85,22.92-77.94,45.43-116.93,68.13
	c-60.32,35.11-120.67,70.19-180.92,105.43c-21.25,12.43-44.5,17.93-68.57,20.89c-12.12,1.49-24.28,2.25-36.49,2.08
	c-7.02-1.95-9.23-6.62-7.58-13.46c11.64,3.69,23.65,2.82,35.38,1.63c30.31-3.07,58.71-11.62,85.33-27.45
	c82.23-48.9,165.03-96.86,247.61-145.18c17.1-10,34.15-20.07,51.39-29.82c5.88-3.32,10.05-7.68,12.15-14.05
	c-0.23-4.09,2.51-6.77,4.84-9.47c3.94-4.56,4.32-7.56-2.45-9.48c-24.92-7.07-46.34-19.48-61.67-41.01c-0.5-0.7-1.6-0.78-2.53-0.7
	c-7.94,5.34-11.47,14.7-18.88,20.49c-3.72,3.01-7.63,5.69-12.27,7.12c-1.47-7.09,1.17-13.28,4.73-19.01
	c5.93-9.56,12.31-18.85,18.39-28.32c1.78-2.77,3.99-5.26,4.27-8.91c2.03-26.95,18.77-43.29,40.81-55.45
	c22.23-12.26,46.16-18.57,71.59-18.87c9.14-0.11,18.27,0.06,27.41,0.11c7,0.04,13.94-0.01,20.94-1.07
	C1788.01,1116.33,1797.62,1117.99,1806.86,1121.57z"/>
<path class="st107" d="M833.4,1437.23c-0.21-0.65-0.41-1.3-0.62-1.95c1.69-6.87,8.05-8.79,13.06-11.88
	c38.79-23.95,77.5-48.03,116.12-72.26c-39.44,23.59-78.21,48.27-117.47,72.15c-4.08,2.48-7.84,6.08-13.33,4.57
	c-2.01-7.04,1.27-11.54,7.01-15.06c14.03-8.62,27.96-17.39,41.98-26.02c18.95-11.67,37.93-23.3,56.92-34.9
	c6.57-4.01,6.61-3.94,1.45-10.22c3.09-3.38,7.2-5.44,11.1-7.6c3.23-1.79,4.37-3.64,3.07-7.27c-5.88-16.41,0.18-29.64,12.71-39.7
	c18.6-14.92,40.67-20.09,64.22-19.52c2.39,0.06,4.76,1,7.14,1.52c4.91,6.11,4.59,13.45,4.86,20.65c-0.08,0.27-0.17,0.56-0.29,0.84
	c-1.77,4.03-9.84,5.29-6.36,11.26c3.28,5.62,9.5,6.66,15.83,5.31c3.26-1.05,6.94-1.01,9.56-3.73c2.66-6.15-1.52-8.51-5.9-10.84
	c-2.39-1.27-5.41,0.07-7.59-1.98c-4.08-7.72-6.84-15.49-1.03-23.63c21.68,4.23,40.44,12.91,51.19,33.74
	c0.65,1.25,0.9,2.63,1.22,3.98c1.38,3.04,2.61,6.11,2.5,9.54c0.39,11.49-4.42,20.67-12.78,28.16
	c-21.1,18.91-46.24,25.09-73.79,22.51c-7.02-0.65-13.26-0.35-19.18,3.62c-2.79,1.87-5.96,3.78-9.32,3.42
	c-10.02-1.07-17.49,4.29-25.1,9.29c-8.79,5.78-17.86,10.57-28.79,10.31c-4.59-0.11-7.51,2.06-8.71,6.49
	c-2.28,8.42-8.27,11.8-16.44,11.52c-6.47-0.22-10.26,2.22-11.93,8.62c-1.19,4.54-4.81,7.19-9.42,7.51
	c-5.49,0.38-8.96,3.08-11.43,7.72c-1.01,1.89-2.55,3.72-4.56,4.37C857.32,1441.65,845.27,1443.58,833.4,1437.23z"/>
<path class="st108" d="M914.33,416.46c2.2,0.84,3.07,2.79,4.06,4.7c10.99,21.4,21.92,42.82,33.06,64.14
	c2.35,4.5,3.09,9.06,3.09,14.04c-0.06,99.89-0.04,199.79-0.03,299.68c0,2.94,0,5.89,0,10.79c-15.53-11.8-28.96-22.98-41.82-34.88
	c0.39-71.93,0.81-143.87,1.15-215.81C914.06,511.56,914.17,464.01,914.33,416.46z"/>
<path class="st109" d="M1132.68,1238.19c8.71-0.97,16.9-4.61,25.98-4.02c30,1.95,60.03,3.48,90.05,5.13
	c4.56,0.25,9.12,0.37,13.68,0.38c4.69,0,9.02,1.26,13.12,3.36c4.92,2.53,8.04,6.42,8.36,12.14c0.12,2.11-0.17,4.28,1.16,6.16
	c5.74,6.53,11.09,40.53,7.52,47.86c-2.31,4.74-6.27,7.29-11.29,8.39c-3.9,0.86-7.86,0.76-11.82,0.8
	c-34.37,0.38-68.59-3.12-102.91-4.15c-24.58-0.74-43.76-15.24-62.66-29.21c-3.44-2.54-5.29-6.62-6.91-10.6
	c-2.51-8.63,0.53-15.63,7.21-20.82c6.34-4.92,12.57-10.5,21.29-11.01c6.35,4.56,6.3,10.9,4.92,17.61c-0.94,2.68-3.3,4-5.44,5.49
	c-4.81,3.34-4.24,6.45,0.27,9.47c2.82,1.45,5.87,1.28,8.9,1.27c6.17,0.14,7.03-3.02,4.84-7.91c-0.96-2.14-2.97-3.67-3.69-6
	C1134.83,1254.37,1129.77,1246.7,1132.68,1238.19z"/>
<path class="st110" d="M1098.87,1272.83c2.21,6.4,6.89,10.62,12.48,13.99c8.86,5.34,17.73,10.65,26.62,15.92
	c9.13,5.41,19.22,7.48,29.66,7.97c33.73,1.61,67.47,3.13,101.2,4.61c3.63,0.16,7.34,0.16,10.91-0.41
	c8.27-1.32,12.17-6.66,11.02-14.8c-1.83-12.93-3.81-25.84-5.73-38.76c0.71-2.17,0.65-5.58,4.38-2.38c4.5,3.86,6,9.16,6.86,14.59
	c2.05,12.93,3.91,25.89,5.6,38.87c1.49,11.42-3.04,16.7-14.46,17.08c-21.03,0.71-42.08,0.92-63.09,2.06
	c-17.37,0.94-34.73,1.42-52.1,1.93c-13.97,0.41-26.46-3.41-37.96-11.1c-3.29-2.2-6.62-4.44-10.18-6.13
	c-6.57-3.11-11.51,0.4-10.47,7.54c3.11,21.29-6.52,35.75-24.19,46.06c-20.94,12.22-43.73,14.82-67.21,11.83
	c-6.66-0.85-11.9-0.19-16.96,3.91c-1.65,1.33-3.63,2.24-5.41,3.42c-3.03,2.02-6.05,2.73-9.32,0.45c-3.52-2.46-6.83-1.59-10.17,0.62
	c-5.09,3.36-10.53,6.22-15.41,9.86c-6.69,5-13.88,6.96-22.22,6.51c-9.2-0.5-9.24-0.11-12.68,8.83c-1.68,4.37-4.43,7.25-9.44,7.22
	c-0.3,0-0.61,0.07-0.91,0.04c-9.81-1.03-17.24,1.05-18.65,12.72c-0.52,4.35-4.42,5.92-8.4,5.03c-6.28-1.4-9.95,0.52-11.44,6.87
	c-1.05,4.48-4.2,6.46-8.76,6.42c-9.76-0.1-19.54,0.19-29.29-0.29c-10.35-0.51-13.33-5.78-9.77-16.05
	c9.14-0.03,18.28,0.07,27.41-0.14c8.54-0.19,9.53-0.83,12.02-9.26c1.18-4,3.21-5.54,7.16-5.12c1.51,0.16,3.05,0.1,4.57,0.06
	c6.77-0.18,6.77-0.19,7.98-7.14c0.16-0.9,0.31-1.81,0.36-2.72c0.28-4.72,2.37-7.2,7.48-6.82c3.32,0.24,6.7-0.04,10.04-0.27
	c6.67-0.46,7.71-1.42,9.14-7.83c2.17-9.78,2.18-10.15,12.58-9.93c7.98,0.17,14.86-1.97,21.38-6.4c6.29-4.27,12.91-8.07,19.37-12.09
	c2.39-1.48,4.95-3.01,7.61-1.12c3.81,2.71,7.05,1.35,9.92-1.16c7.23-6.32,15.12-6.94,24.56-5.85c20.06,2.33,39.6-1.04,57.28-11.35
	c13.82-8.06,25.36-18.19,25.75-36.06c0.01-0.45,0.74-0.89,1.13-1.34c2.53-4.17,8.33-4.15,11.34-8.36
	c-5.44-1.77-9.55,5.28-14.64,1.17c-0.25-1.32-0.49-2.64-0.74-3.96c3.94-5.55,4.01-10.84,0.74-17.13
	C1092.86,1278.7,1094.17,1276.35,1098.87,1272.83z"/>
<path class="st111" d="M1084.62,323.06c-2.26-0.29-3.72-1.41-3.92-3.82c5.83-2.65,10.82-5.86,13.83-12.15
	c2.18-4.56,6.44-8.12,10.82-10.88c3.59-2.26,4.6-5.11,4.56-9.09c-0.13-11.23,0.02-22.46,0.06-33.69c1.72-0.5,2.81,0.42,3.76,1.66
	c3.78,9,10.84,14.2,19.74,17.59c16.31,6.21,32.92,6.95,49.99,3.98c3.63-0.63,7.7-2.57,11.45,0.17c2.62,3,2.68,6.72,2.71,10.37
	c0.12,16.76,0.33,33.53-0.08,50.28c-0.24,9.88-2.6,12.66-11.59,14.7c-22.18,5.05-43.33,2.22-63.09-9.15
	c-7.25-4.17-13.01-9.92-14.31-16.27c2.17,8.82,10.31,15.19,19.97,19.42c27.2,11.89,54.01,12.29,79.79-4.31
	c12.32-7.93,14.75-14.26,11.54-28.4c-1.52-6.71-3.73-13.73,1.78-19.92c15.67,9.13,22.31,22.82,20.56,40.73
	c0.81,1.57,0.38,2.88-0.85,4.01c-2.04,1.44-2.36,3.92-3.55,5.9c-0.51,0.77-1.09,1.44-1.74,2.09c-17.3,15.48-38.17,21.88-60.76,23.24
	c-18.27,1.09-36.41-0.12-53.62-7.21c-13.1-5.39-25.14-12.24-32.37-25.2c-0.34-0.82-0.66-1.67-0.95-2.5
	C1087.39,330.67,1088.56,326.05,1084.62,323.06z"/>
<path class="st112" d="M2118.84,1047.42c-4.46-3.07-8.25-1.15-12.57,0.92c-4.78,2.29-5.81,5.66-5.46,10.26
	c0.19,2.56-0.46,4.91-2.8,6.32c-7.7,4.62-15.45,9.17-24.53,14.55c0-6.86,0.06-11.93-0.01-17c-0.11-7.48-2.88-13.85-9.32-17.8
	c-22.54-13.82-45.23-27.41-67.9-41.02c-1.53-0.92-3.39-1.31-5.09-1.94c6.79-6.23,15.24-9.93,22.82-14.96
	c4.38-2.91,8.17-0.63,11.94,1.42c3.58,1.95,6.38,3.26,7.94-2.52c1.51-5.59,6.4-8.72,11.21-11.5c10.05-5.81,20.83-10.1,31.27-15.09
	c11.79-5.63,22.8-4.93,33.87,1.74c17.49,10.54,35.16,20.79,52.67,31.3c4.17,2.5,8.63,4.6,12.17,8.06c1.99,1.95,4.19,3.8,2.27,7
	c-1.88,4.64-6.4,5.33-10.34,6.66c-9.83,3.31-19.49,7.01-28.97,11.24c-8.47,3.78-15.54,8.5-16.61,18.74
	C2121.22,1045.3,2120.22,1046.58,2118.84,1047.42z"/>
<path class="st113" d="M1111.76,254.31c-0.6-0.29-1.2-0.59-1.8-0.88c-1.61-13.09,4.24-22.21,15.21-28.66
	c10.14-5.96,20.99-9.44,32.81-9.89c13.49-0.52,26.72,0.36,39.39,5.66c5.69,2.38,10.73,5.53,15.22,9.81
	c7.83,7.46,10.09,16.26,7.37,26.55c0.77,1.61-0.14,2.69-1.17,3.74c-25.53,20.42-53.94,22.41-84.02,12.87
	C1124.6,270.27,1116.3,264.44,1111.76,254.31z"/>
<path class="st23" d="M1239.98,337.42c1.38-0.59,1.91-1.78,2.2-3.14c2.23,7.69,0.96,15.47,0.54,23.21
	c-0.57,10.51-1.35,21.01,1.13,31.4c0,0-0.32,0.31-0.32,0.31c-1.96,8.85,0.02,17.86-1.12,26.75c0,7.08-3.15,12.84-7.82,17.8
	c-7.32,7.79-15.6,14.16-26.38,16.49c-2.03-2.04-2.94-4.59-2.95-7.38c-0.09-24.13-0.65-48.26,0.3-72.39c0.04-0.89,0.44-1.75,0.68-2.6
	c1.09-4.31,4.54-5.98,8.21-7.7c8.59-4.02,16.08-9.59,22.03-17.06l-0.11,0.13C1237.68,341.36,1238.47,339.17,1239.98,337.42z"/>
<path class="st114" d="M1218.17,258.54c0.59-0.55,1.18-1.1,1.77-1.65c2.17,2.96,1.24,6.38,1.31,9.62
	c0.19,9.01,0.25,18.03,0.36,27.04c-0.92,7.61-0.86,14.89,2.59,22.22c3.02,6.4,1.82,13.13-2.66,18.95
	c-4.35,5.65-9.71,10.17-16.14,13.19c-25.4,11.96-51.07,12.67-76.88,1.35c-7.67-3.37-14.24-8.3-19.01-15.26
	c-4.87-7.11-4.88-13.44,0.09-20.53c-1.31,19.57,11.06,27.93,26.35,33.11c16.72,5.67,33.89,6.85,51.33,2.69
	c5.07-1.21,6.99-3.38,6.92-8.66c-0.28-21.02-0.16-42.05-0.19-63.08c0.13-2.52,1.94-3.58,3.93-4.41
	C1205.84,269.84,1212.48,264.85,1218.17,258.54z"/>
<path class="st115" d="M1127.84,1262.04c0.38-6.4,0.35-12.74-2.84-18.59c-2.52-0.61-4.23-2.33-5.7-4.3
	c-11.85-15.77-30.82-14.56-45.77-5.35c-9.54,5.88-16.3,14.36-20.7,24.75c-1.36,3.21-1.69,7.26-5.66,8.87
	c-2.05,7.75-0.96,15.25,1.78,22.62c6.35,3.59,11.49,8.26,13.87,15.41c-3.06,3.24-6.89,4.27-11.21,3.88
	c-9.3-3.68-12.89-9.29-11.89-18.59c-2.36-7.04-2.66-14.36-2.96-21.68c1.46-1.38,1.34-3.29,1.77-5.04c4.73-19,15.57-33.3,32.76-42.82
	c18.92-10.48,48.67-8.2,61.37,16.97c3.74,8.1,5,16.66,4.84,25.49c2.59,6.04,2.56,11.39-4.01,14.99c-3.17,2.06-6.13,1.07-9.05-0.6
	C1121.23,1271.8,1124,1266.81,1127.84,1262.04z"/>
<path class="st116" d="M1069.89,322.69c1.84,0.61,2.8,1.34,0.49,2.73c-7.02,4.23-14.02,8.51-21.05,12.73
	c-23.43,14.06-46.93,28.01-70.28,42.2c-5.51,3.35-11.24,5.88-17.36,7.81c-9.55,3-18.99,6.39-28.52,9.48
	c-1.88,0.61-3.74,2.41-5.96,0.78c33.15-19.67,66.28-39.39,99.47-58.99C1040.15,331.48,1055.54,328.41,1069.89,322.69z"/>
<path class="st117" d="M831.16,1427.85c24.34-14.94,48.68-29.86,73.01-44.82c18.65-11.47,37.27-23,55.92-34.48
	c3.05-1.88,6.08-4.65,9.98-0.26c-1.19,3.3-4.63,4.26-7.22,5.88c-42.59,26.55-85.23,53.01-127.86,79.5c-0.77,0.48-1.47,1.06-2.2,1.6
	C830.9,1433.09,831.44,1430.38,831.16,1427.85z"/>
<path class="st118" d="M917.58,789.6c12.59,7.41,22.91,17.74,34.35,26.64c3.01,2.34,3.09,5.93,3.38,9.1
	c1.32,14.44,2.36,28.91,4.52,43.26c0.27,1.82,0.11,3.64-1.36,5.05c-7.73-14.49-13.55-29.94-22.09-44.03
	c-4.87-10.01-9.79-20.01-14.59-30.06C920.24,796.32,918.98,792.93,917.58,789.6z"/>
<path class="st119" d="M2118.84,1047.42c-1.68-11.7,3.78-18.82,14.13-23.63c14.38-6.69,29.22-11.99,44.34-16.64
	c0.66,0.76,1.32,1.53,1.98,2.29c-0.23,4.31-2.02,7.42-6.17,9.28c-15.12,6.73-28.44,16.43-42.07,25.64
	C2127.43,1046.81,2123.81,1050.01,2118.84,1047.42z"/>
<path class="st100" d="M744.34,1037.06c-13.96-6.22-26.38-15.12-39.43-22.89c-43.15-25.7-86.22-51.56-129.17-77.59
	c-25.22-15.29-50.94-29.76-75.62-45.95c0.75-5.94,6.17-4.17,9.55-5.77c3.69-2.09,7.52-3.99,11.06-6.3
	c14.61-9.55,28.82-8.8,43.58,0.18c41.84,25.43,83.91,50.5,125.89,75.69c53.98,32.39,107.97,64.75,161.95,97.13
	c4.73,2.84,9.46,5.67,11.12,11.48c1.75,7.83-1.17,13.47-7.88,17.59c-9.29,5.7-18.63,11.33-28.03,16.85
	c-2.87,1.69-5.82,3.42-9.38,1.89c-2.81-6.81-6.83-12.95-10.54-19.27c-0.28-2.42,1.41-3.86,2.7-5.52c7.51-9.62,5.37-18-5.86-22.97
	c-4.44-1.96-9.53-2.11-13.71-4.82c-10.9-12.5-23.87-17.47-39.98-10.94C748.58,1036.65,746.39,1036.47,744.34,1037.06z"/>
<path class="st120" d="M791.33,1045.54c6,0.71,11.93,1.67,17.28,4.72c13.2,7.52,13.7,19.97,1.14,28.41c-0.75,0.5-1.53,0.95-2.3,1.42
	c-8.85-9.74-20.11-16.22-31.16-22.97c-2.82-1.72-5.5-3.68-8.24-5.53C774.26,1043.08,782.09,1041.04,791.33,1045.54z"/>
<path class="st121" d="M791.33,1045.54c-8.32-0.13-15.93,2.49-23.28,6.05c-8.32-4.16-16.23-9.01-23.71-14.54
	c3.56-6.23,10.18-6.13,15.91-7.11C772.81,1027.8,785.96,1034.7,791.33,1045.54z"/>
<path class="st122" d="M817.99,1099.35c12.47-7.41,24.9-14.9,37.44-22.2c5.54-3.22,8.26-7.75,7.84-14.14
	c3.76,13.04,2.17,17.33-8.92,23.97c-7.02,4.2-13.91,8.63-21.1,12.5c-4.89,2.64-6.02,6.24-4.88,11.28c1.14,5.01,2.1,10.07,2.99,15.13
	c0.32,1.8,0.28,3.97-1.87,4.56c-2.36,0.64-2.95-1.55-3.44-3.22C823.32,1117.95,820.67,1108.65,817.99,1099.35z"/>
<path class="st123" d="M509.67,884.86c-2.62,2.84-6.2,4.12-9.55,5.76c-10.74-3.12-21.66-2.9-32.64-1.83
	c-1.62,0.16-3.96,1.67-4.68-0.82c-0.67-2.32,1.66-2.94,3.43-3.23C480.71,882.31,495.2,880.64,509.67,884.86z"/>
<path class="st124" d="M637.6,1254.29c-1.28-0.27-2.77-0.13-2.79-1.75c-0.01-0.75,0.5-1.89,1.1-2.18c3.48-1.71,7.03-3.27,10.6-4.76
	c1.22-0.51,2.5,0.06,3.12,1.13c0.89,1.53,0.23,2.95-1.22,3.77C645,1252.42,641.29,1253.55,637.6,1254.29z"/>
<path class="st125" d="M522.65,1197.77c0.96,0,1.26-0.04,1.55,0.01c3.95,0.57,11.47,5.79,11.3,8c-0.06,0.7-0.9,1.67-1.59,1.91
	c-2.02,0.71-10.7-4.14-12.24-6.72C520.54,1199.1,521.94,1198.4,522.65,1197.77z"/>
<path class="st126" d="M831.35,1140.21c-0.49-0.29-1.38-0.59-1.92-1.2c-0.68-0.76-0.28-1.71,0.24-2.47
	c1.79-2.69,10.45-7.11,12.53-6.23c0.62,0.26,1.33,1.42,1.25,2.07C843.19,1134.43,834.6,1139.99,831.35,1140.21z"/>
<path class="st127" d="M535.9,930.3c-0.27,1.5-1.47,2.09-2.63,1.72c-4.02-1.29-7.79-3.14-10.87-6.11c-0.63-0.61-1.07-1.61-0.44-2.44
	c0.5-0.66,1.28-1.43,2.01-1.52c2.27-0.28,11.14,5.46,11.88,7.5C535.94,929.71,535.89,930.02,535.9,930.3z"/>
<path class="st128" d="M917.06,1088.68c-0.49-0.24-1.53-0.43-1.94-1.04c-0.41-0.6-0.58-2.04-0.19-2.41c2.99-2.87,6.1-5.64,9.3-8.27
	c0.48-0.4,1.86-0.2,2.49,0.22c0.59,0.39,1.09,1.5,0.99,2.21C927.33,1082.14,920.29,1088.33,917.06,1088.68z"/>
<path class="st129" d="M766.8,1178.89c-0.5-0.47-1.26-0.95-1.71-1.63c-0.59-0.9-0.03-1.87,0.63-2.39c3.72-2.97,7.38-6.2,12.53-6.19
	c0.85,0,1.65,1.3,1.25,2.03c-2.34,4.2-6.77,5.69-10.68,7.82C768.32,1178.79,767.65,1178.75,766.8,1178.89z"/>
<path class="st130" d="M611.78,1248.55c2.91,0.69,6.41,1.45,9.87,2.37c1.22,0.32,2,1.33,1.76,2.68c-0.24,1.39-1.48,2.13-2.62,1.95
	c-3.52-0.56-7.03-1.3-10.47-2.22c-1.32-0.35-3.1-0.97-2.75-2.9C607.92,1248.5,609.74,1248.83,611.78,1248.55z"/>
<path class="st131" d="M664.09,905.43c3.94,1.92,7.67,3.88,10.7,6.86c0.45,0.44,0.51,1.86,0.14,2.41c-0.4,0.59-1.66,1.13-2.3,0.93
	c-4.05-1.26-7.81-3.14-10.61-6.43c-0.44-0.52-0.42-1.85-0.06-2.5C662.28,906.06,663.34,905.83,664.09,905.43z"/>
<path class="st132" d="M514.51,917.71c-0.3,1.52-1.52,1.75-2.7,1.65c-3.23-0.27-11.3-5.9-11.26-7.93c0.01-0.69,0.78-1.73,1.43-1.98
	c1.96-0.75,10.68,4.05,12.19,6.58C514.44,916.5,514.4,917.15,514.51,917.71z"/>
<path class="st133" d="M459.54,1158.22c4.46,1.35,8.26,3.82,11.67,6.88c0.46,0.41,0.56,1.85,0.2,2.41c-0.39,0.61-1.61,1.19-2.3,1.03
	c-4.56-1.03-8.47-3.37-11.36-7C456.56,1160.04,457.85,1158.81,459.54,1158.22z"/>
<path class="st134" d="M280.54,1049.98c-0.21,1.23-0.59,2.32-2.11,2.38c-2.76,0.11-11.04-5.01-11.83-7.37
	c-0.46-1.37,0.18-2.37,1.54-2.66C270.94,1041.73,280.08,1047.43,280.54,1049.98z"/>
<path class="st128" d="M893.65,1043.89c4,1.58,8.09,3.55,10.91,7.21c1.09,1.41-0.08,3.38-1.81,2.98c-4.43-1.04-8.59-2.96-11.24-6.91
	C890.41,1045.5,891.64,1044.44,893.65,1043.89z"/>
<path class="st135" d="M578.2,955.74c-0.61,1.69-1.72,2.19-2.96,1.83c-3.83-1.12-7.03-3.38-9.98-5.98
	c-0.99-0.88-1.12-2.06-0.37-3.22c0.58-0.89,1.57-1.01,2.39-0.69c3.67,1.41,7.17,3.18,9.97,6.01
	C577.82,954.25,577.97,955.21,578.2,955.74z"/>
<path class="st136" d="M789.11,1085.66c-0.32,1.84-1.71,2.57-3.2,1.71c-3.67-2.13-6.93-4.88-9.46-8.29c-1-1.35-0.37-3.11,1.55-3.36
	C780.54,1075.39,788.77,1082.86,789.11,1085.66z"/>
<path class="st137" d="M926.25,1065.94c-0.06,1.39-0.82,2.48-2.13,2.4c-1.1-0.07-2.41-0.66-3.19-1.45
	c-2.82-2.84-8.04-3.56-8.03-8.89c0-0.31,0.9-0.82,1.43-0.9c2.05-0.3,10.62,5.57,11.72,7.95
	C926.18,1065.32,926.19,1065.64,926.25,1065.94z"/>
<path class="st138" d="M757.74,1183.72c-0.36,0.59-0.67,1.5-1.3,2.05c-2.74,2.4-5.89,4.16-9.25,5.53c-1.26,0.51-2.49,0.23-3.02-0.99
	c-0.29-0.66-0.14-2,0.35-2.44c3.12-2.86,6.61-5.26,10.75-6.35C756.4,1181.22,757.57,1181.99,757.74,1183.72z"/>
<path class="st139" d="M323.57,1076.2c-0.47,0.6-0.87,1.49-1.55,1.92c-1.14,0.7-2.48,0.28-3.43-0.43c-3.2-2.39-8.39-2.54-9-7.82
	c-0.04-0.38,0.65-1.06,1.13-1.26c1.96-0.79,10.94,4.03,12.39,6.58C323.25,1075.44,323.35,1075.73,323.57,1076.2z"/>
<path class="st140" d="M907.74,1093.21c-0.03,1.56-0.82,2.52-1.85,3.15c-2.59,1.59-5.25,3.09-7.92,4.55
	c-1.4,0.77-2.92,1.14-3.91-0.61c-0.7-1.24-0.13-2.5,0.8-3.27c2.82-2.33,5.88-4.4,9.41-5.46
	C905.69,1091.14,907.35,1091.39,907.74,1093.21z"/>
<path class="st141" d="M353.86,1093.57c3.82,2.39,8.05,4.03,11.23,7.3c0.43,0.44,0.46,1.85,0.08,2.37
	c-0.41,0.56-1.65,1.01-2.31,0.81c-4.06-1.23-7.72-3.27-10.78-6.24c-0.62-0.6-1.12-1.58-0.45-2.43
	C352.13,1094.73,352.92,1094.31,353.86,1093.57z"/>
<path class="st142" d="M821.87,1145.45c-0.58,0.72-1.14,1.85-2.06,2.46c-2.49,1.65-5.1,3.13-7.72,4.58
	c-1.39,0.77-2.92,1.04-3.85-0.64c-0.68-1.21-0.07-2.5,0.93-3.15c3.01-1.94,6.09-3.81,9.28-5.43
	C819.94,1142.53,821.34,1143.19,821.87,1145.45z"/>
<path class="st143" d="M580.43,855.46c3.83,1.66,7.99,3.26,11.07,6.65c0.43,0.48,0.39,1.83,0.03,2.45
	c-0.36,0.62-1.56,1.31-2.15,1.14c-4.36-1.27-8.23-3.55-11.11-7.05C577.02,857.13,578.44,856.03,580.43,855.46z"/>
<path class="st144" d="M715.04,1209.11c-0.21,0.51-0.3,1.58-0.87,2.03c-3.08,2.41-6.36,4.52-10.07,5.86
	c-1.26,0.45-2.36,0.01-3.11-1.09c-0.63-0.92-0.11-1.8,0.5-2.41c3.02-3.02,6.72-5.02,10.7-6.43
	C713.41,1206.64,714.48,1207.43,715.04,1209.11z"/>
<path class="st145" d="M717.38,939.46c-0.38,1.41-1.51,2.06-2.72,1.72c-4.13-1.19-7.6-3.59-10.64-6.56
	c-0.48-0.47-0.62-1.78-0.32-2.43c0.29-0.63,1.52-1.44,2.04-1.27c4.3,1.41,8.42,3.23,11.4,6.84
	C717.45,938.14,717.31,938.89,717.38,939.46z"/>
<path class="st146" d="M693.81,1023.9c4.14,1.65,7.89,3.61,10.92,6.68c0.47,0.48,0.56,1.83,0.23,2.47
	c-0.32,0.63-1.57,1.36-2.13,1.18c-4.07-1.32-7.81-3.33-10.77-6.5c-0.48-0.52-0.62-1.82-0.32-2.48
	C692.03,1024.61,693.1,1024.33,693.81,1023.9z"/>
<path class="st147" d="M735.89,1195.33c0.25,2.37-0.91,3.41-2.16,4.19c-3.24,2.02-6.03,5.11-10.29,4.79
	c-0.54-0.04-1.52-1.42-1.38-1.93c1.2-4.37,5.68-4.86,8.75-7.03C732.52,1194.13,734.5,1193.46,735.89,1195.33z"/>
<path class="st148" d="M788.56,1166.12c-0.5-0.27-1.53-0.5-1.92-1.13c-0.38-0.62-0.38-1.75-0.07-2.46c0.32-0.76,1.08-1.58,1.83-1.85
	c3.71-1.34,6.28-5.83,11.07-4.11c0.37,0.13,0.72,1.01,0.67,1.51C799.95,1160.12,791.78,1165.89,788.56,1166.12z"/>
<path class="st149" d="M655.06,900.68c-0.06,1.39-0.78,2.28-2.15,2.45c-2.09,0.26-10.65-4.52-11.57-6.56
	c-0.52-1.15-0.33-2.53,0.93-3.16C644.58,892.28,654.52,898.01,655.06,900.68z"/>
<path class="st150" d="M757.46,1062.34c0.81,0.23,1.45,0.27,1.95,0.57c3.49,2.14,8.09,2.95,9.52,7.57c0.15,0.48-0.96,1.97-1.37,1.92
	c-4.68-0.49-8.35-3.06-11.6-6.23c-0.49-0.48-0.67-1.76-0.39-2.43C755.85,1063.08,756.88,1062.74,757.46,1062.34z"/>
<path class="st151" d="M672.38,1234.98c-0.35,0.74-0.48,1.41-0.88,1.79c-3.12,2.92-6.63,5.29-10.79,6.37
	c-1.59,0.41-3.07-0.57-2.55-2.56c0.71-2.73,10.2-8.31,12.7-7.47C671.53,1233.33,671.92,1234.38,672.38,1234.98z"/>
<path class="st152" d="M598.99,1244.42c-0.23,1.5-1.25,2.04-2.53,1.95c-3.35-0.26-11.37-5.61-11.51-7.77
	c-0.04-0.71,0.6-1.82,1.23-2.14c1.91-0.97,10.34,3.47,12.28,6.36C598.77,1243.27,598.83,1243.9,598.99,1244.42z"/>
<path class="st153" d="M651.9,998.57c0.25,0.1,1.21,0.25,1.89,0.77c3.03,2.34,7.66,2.7,8.99,7.07c0.16,0.53-0.83,2.03-1.32,2.05
	c-4.98,0.13-8.17-3.38-11.7-6.11c-0.68-0.52-1.08-1.51-0.58-2.47C649.61,999.06,650.22,998.41,651.9,998.57z"/>
<path class="st125" d="M629.95,985.67c4.32,1.62,8.26,3.75,11.42,6.97c1.26,1.29,0.39,2.9-1.39,3.27
	c-2.52,0.52-10.79-4.38-11.92-6.96C627.24,987.06,628.49,986.31,629.95,985.67z"/>
<path class="st154" d="M586.95,960.16c2.22-0.23,11.12,5.16,11.9,7.3c0.65,1.77-0.36,3.33-2.01,2.94
	c-4.41-1.04-8.16-3.59-11.19-6.91C584.5,962.25,585.21,960.71,586.95,960.16z"/>
<path class="st155" d="M852.04,1018.65c3.91,1.65,7.87,3.77,10.99,7.01c1.22,1.27,0.31,2.91-1.47,3.29
	c-2.35,0.49-10.92-4.63-11.91-7.07C848.9,1020,850.12,1019.21,852.04,1018.65z"/>
<path class="st156" d="M682.4,1229.97c-1.28,0.08-2.2-0.35-2.39-1.25c-0.17-0.78-0.05-1.99,0.46-2.48
	c2.87-2.77,6.19-4.91,10.02-6.12c0.87-0.28,1.82-0.02,2.4,0.85c0.54,0.8,0.71,1.72,0.04,2.47
	C689.99,1226.7,686.03,1228.32,682.4,1229.97z"/>
<path class="st139" d="M842.34,1014.12c-0.16,1.77-1.4,2.4-2.5,2.15c-4.17-0.95-7.64-3.31-10.68-6.2c-0.89-0.85-0.86-2.25,0.38-3.08
	c2.22-1.48,4.03,0.1,5.71,1.12C837.96,1009.74,841.36,1010.71,842.34,1014.12z"/>
<path class="st157" d="M395.79,1119.89c2.05-0.2,11.48,5.5,11.95,7.4c0.49,1.99-0.97,2.95-2.56,2.51c-4.1-1.14-7.81-3.22-10.62-6.45
	C393.53,1122.17,393.89,1120.49,395.79,1119.89z"/>
<path class="st158" d="M289.29,1055.47c2.88-0.33,11.43,4.87,12.43,7.35c0.2,0.5,0.24,1.45-0.05,1.68
	c-0.66,0.51-1.73,1.17-2.34,0.95c-4.01-1.45-7.73-3.54-10.76-6.54C287.38,1057.74,287.89,1056.15,289.29,1055.47z"/>
<path class="st159" d="M492.74,1179.81c-0.2,1.39-1.1,2.63-2.32,2.15c-4.21-1.65-8.34-3.58-11.32-7.2
	c-0.31-0.37-0.39-1.42-0.12-1.67c0.61-0.57,1.62-1.3,2.26-1.14c4.19,1.04,7.81,3.2,10.87,6.24
	C492.49,1178.57,492.54,1179.28,492.74,1179.81z"/>
<path class="st160" d="M545.12,1210.29c4.12,1.53,7.67,3.73,10.74,6.64c0.44,0.42,0.46,1.83,0.09,2.42
	c-0.38,0.6-1.61,1.21-2.23,1.03c-4.09-1.2-7.69-3.36-10.6-6.49c-0.46-0.5-0.56-1.85-0.21-2.45
	C543.26,1210.82,544.37,1210.64,545.12,1210.29z"/>
<path class="st161" d="M804.11,1107.14c-0.46,1.73-1.83,2.61-3.23,1.38c-3.49-3.08-5.06-7.42-6.57-11.68
	c-0.19-0.53,0.61-1.57,1.18-2.14c0.28-0.28,1.18-0.18,1.67,0.04C799.45,1095.78,804.28,1104.39,804.11,1107.14z"/>
<path class="st162" d="M608.3,973.29c2.51-0.3,11.21,4.79,12.03,7.19c0.68,2-0.84,3.08-2.36,2.63c-4.05-1.21-7.72-3.37-10.7-6.38
	C606.14,975.6,606.38,973.94,608.3,973.29z"/>
<path class="st163" d="M777.46,978.92c-4.14-1.18-7.79-3.63-10.92-6.9c-0.32-0.34-0.38-1.15-0.24-1.66
	c0.25-0.93,1.07-1.56,1.99-1.34c4.43,1.03,8.51,2.95,11.41,6.49C780.73,976.76,779.5,978.26,777.46,978.92z"/>
<path class="st164" d="M885.94,1106.66c-0.49,2.43-10.11,8.55-12.46,7.74c-1.19-0.41-1.98-1.78-1.04-2.88
	c2.97-3.52,6.85-5.77,11.26-6.95C884.9,1104.25,885.92,1105.18,885.94,1106.66z"/>
<path class="st165" d="M726.68,943.4c3.76,1.77,7.83,3.57,11.04,6.76c0.43,0.43,0.4,1.83,0.02,2.44c-0.37,0.6-1.62,1.25-2.2,1.05
	c-4.23-1.48-8.47-3.15-11.14-6.98C723.3,945.08,724.65,943.99,726.68,943.4z"/>
<path class="st166" d="M233.07,1026.08c-1.17-0.15-2.08-0.16-2.94-0.39c-2.43-0.64-6.73,0.28-6.52-3.03
	c0.26-4.14,4.52-2.5,7.29-2.54c0.86-0.01,1.8,0.24,2.59,0.62c1.75,0.83,4.6,0.98,3.85,3.89
	C236.74,1026.94,234.48,1026.06,233.07,1026.08z"/>
<path class="st167" d="M788.98,980.85c4.27,1.4,7.98,3.43,10.9,6.65c0.44,0.49,0.47,1.9,0.08,2.45c-0.41,0.58-1.69,1.06-2.35,0.85
	c-3.81-1.2-7.18-3.28-10.23-5.84c-0.75-0.63-0.95-1.66-0.38-2.47C787.48,981.82,788.31,981.39,788.98,980.85z"/>
<path class="st168" d="M696.13,925.88c-0.23,1.28-0.88,2.55-2.25,2.19c-4.13-1.07-7.81-3.14-10.68-6.32
	c-1.25-1.39-0.62-2.96,1.24-3.3C686.97,917.98,695.74,923.74,696.13,925.88z"/>
<path class="st169" d="M759.03,964.44c-0.4,1.36-1.4,1.93-2.72,1.8c-2.85-0.28-10.47-5.64-10.61-7.6c-0.05-0.67,0.64-1.81,1.25-2.04
	c1.74-0.64,10.28,4.01,11.63,6.18C758.87,963.26,758.89,963.89,759.03,964.44z"/>
<path class="st170" d="M566.13,1223.44c2.53-0.3,11.39,5.26,11.75,7.59c0.2,1.33-0.78,2.69-2.03,2.39
	c-4.52-1.1-8.37-3.51-11.15-7.29C563.89,1225.02,564.6,1223.85,566.13,1223.44z"/>
<path class="st171" d="M559.72,842.67c3.63,1.73,7.86,3.33,10.76,6.99c0.38,0.48,0.17,1.84-0.26,2.41c-0.45,0.58-1.7,1.14-2.28,0.91
	c-3.94-1.56-7.63-3.68-10.32-7C556.49,844.58,557.18,843.16,559.72,842.67z"/>
<path class="st172" d="M872.75,1031.57c3.8,1.7,8,3.18,11,6.68c0.43,0.5,0.45,1.84,0.08,2.42c-0.38,0.59-1.64,1.19-2.22,0.99
	c-3.95-1.41-7.57-3.47-10.44-6.58c-0.46-0.49-0.39-1.65-0.24-2.44C871,1032.28,871.86,1032.07,872.75,1031.57z"/>
<path class="st173" d="M726.62,1045.44c-0.22,1.33-1.41,1.84-2.58,1.43c-3.99-1.41-7.62-3.53-10.51-6.68
	c-0.44-0.48-0.34-1.66-0.15-2.45c0.08-0.36,0.94-0.74,1.47-0.78c2.56-0.22,11,5.16,11.76,7.43
	C726.69,1044.64,726.62,1044.95,726.62,1045.44z"/>
<path class="st174" d="M671.72,1011.33c1.11,0.08,1.42,0.07,1.71,0.13c3.7,0.73,10.58,5.76,10.61,7.85c0.01,0.52-0.4,1.2-0.84,1.53
	c-1.52,1.17-9.27-2.35-11.8-5.42c-0.5-0.61-0.79-1.64-0.71-2.44C670.77,1012.13,671.35,1011.27,671.72,1011.33z"/>
<path class="st175" d="M747.18,1058.33c-0.42,0.79-1.08,1.57-2.03,1.32c-4.17-1.08-7.65-3.47-10.58-6.49
	c-1.18-1.21-0.55-2.96,1.36-3.32c2.11-0.4,10.28,4.6,11.22,6.73C747.36,1057.05,747.18,1057.71,747.18,1058.33z"/>
<path class="st176" d="M344.02,1089.39c-0.24,1.58-1.44,1.88-2.67,1.71c-3.23-0.43-10.56-5.65-10.72-7.73
	c-0.05-0.67,0.9-2.05,1.3-2.01c4.77,0.41,8.29,3.27,11.62,6.37C343.92,1088.06,343.88,1088.82,344.02,1089.39z"/>
<path class="st177" d="M808.21,996.64c0-1.53,0.97-2.18,2.29-2.15c3.25,0.08,10.86,5.02,11.06,7.12c0.1,1.05-0.6,1.72-1.47,2.03
	c-2.11,0.75-10.06-3.52-11.59-6.16C808.35,997.23,808.3,996.92,808.21,996.64z"/>
<path class="st178" d="M438.85,1145.98c4.05,1.52,7.95,3.11,10.7,6.42c1.18,1.43,0.48,2.88-1.43,3.19
	c-2.42,0.39-10.03-4.09-11.22-6.53c-0.24-0.49-0.41-1.37-0.15-1.67C437.27,1146.78,438.12,1146.44,438.85,1145.98z"/>
<path class="st179" d="M502.88,1184.74c3.7,1.5,7.64,3.47,10.68,6.84c0.41,0.45,0.34,1.82-0.05,2.38c-0.4,0.56-1.64,1.08-2.24,0.86
	c-3.96-1.42-7.7-3.36-10.38-6.68C499.82,1186.81,500.36,1185.35,502.88,1184.74z"/>
<path class="st180" d="M417.32,1132.56c4.12,1.73,8.05,3.43,10.82,6.84c0.42,0.51,0.25,1.69,0.03,2.46
	c-0.11,0.38-1.04,0.84-1.5,0.74c-4.6-0.96-8.27-3.52-11.34-6.96c-0.3-0.33-0.32-1.33-0.04-1.66
	C415.81,1133.36,416.65,1133,417.32,1132.56z"/>
<path class="st181" d="M864.3,1119.64c-0.42,2.89-10.11,8.65-12.53,7.4c-0.87-0.45-1.2-1.38-0.9-2.31
	c0.85-2.69,9.51-7.84,12.06-7.15C863.82,1117.82,864.42,1118.56,864.3,1119.64z"/>
<path class="st182" d="M633.46,888.74c-0.47,1.41-1.58,1.68-2.81,1.54c-3.13-0.37-10.47-5.44-10.65-7.29
	c-0.11-1.15,0.77-1.83,1.56-1.76c4.62,0.39,8.24,2.92,11.57,5.9C633.46,887.42,633.36,888.21,633.46,888.74z"/>
<path class="st183" d="M612.52,876.65c-0.34,0.9-0.98,1.52-1.95,1.54c-3.01,0.07-11.08-5.64-11.16-7.93
	c-0.02-0.49,0.33-1.18,0.73-1.47c1.63-1.16,10.59,3.38,12.14,6.15C612.54,875.42,612.45,876.08,612.52,876.65z"/>
<path class="st184" d="M813.2,1127.79c0.37,2.67,0.11,3.97-1.07,4.49c-1.33,0.59-2.42-0.41-2.86-1.53c-1.23-3.09-2.32-6.23-3.31-9.4
	c-0.37-1.21,0.11-2.54,1.3-3.06c1.31-0.57,2.43,0.34,2.91,1.47C811.44,1122.82,812.52,1125.97,813.2,1127.79z"/>
<path class="st185" d="M386.44,1115.29c-0.06,1.1-0.8,1.52-1.75,1.68c-1.64,0.27-3.04-0.53-4.15-1.48c-2.57-2.2-7.18-2.38-7.23-7.02
	c-0.01-0.48,1.29-1.37,2.01-1.39c2.47-0.08,10.32,5.27,11.07,7.35C386.48,1114.68,386.43,1115,386.44,1115.29z"/>
<path class="st186" d="M556.74,942.66c-0.1,1.37-0.73,2.3-2.19,2.3c-2.57,0.01-10.37-4.99-11.16-7.2c-0.49-1.38,0.15-2.46,1.54-2.69
	C547.59,934.64,556.24,940.3,556.74,942.66z"/>
<path class="st187" d="M532.66,837.15c4.12-2.95,8.43-2.12,12.68-1.12c1.07,0.25,2.15,1.12,2.01,2.57
	c-0.15,1.58-1.48,1.81-2.63,1.91C540.44,840.89,536.5,839.61,532.66,837.15z"/>
<path class="st188" d="M480.94,897.64c0.36,0.02,1.07-0.15,1.53,0.12c3.55,1.99,8.23,2.43,9.98,6.91c0.4,1.02-0.7,1.84-1.51,1.78
	c-4.66-0.39-8.41-2.82-11.9-5.7c-0.34-0.28-0.41-1.13-0.29-1.65C478.97,898.16,479.7,897.65,480.94,897.64z"/>
<path class="st185" d="M245.39,1029.22c6.12,1.25,9.9,3.49,13.25,6.54c0.96,0.88,1.34,2.14,0.2,3.11c-0.59,0.5-1.84,0.96-2.39,0.68
	C252.32,1037.41,247.42,1036.06,245.39,1029.22z"/>
<path class="st189" d="M463.4,893.53c1.98,0.23,4.97-0.42,4.84,2.51c-0.13,3.09-3.22,3.01-5.59,3.04c-1.75,0.03-4.09,0.13-4.28-2.19
	C458.08,893.26,461.19,893.88,463.4,893.53z"/>
<path class="st190" d="M965.67,882.38c0.82-9.09-0.53-18.07-1.21-27.1c-0.74-9.94-3.22-19.77-2.66-29.65
	c3.67-1.53,5.81,0.68,8.08,1.96c42.5,23.94,84.98,47.91,127.43,71.94c35.55,20.12,71.01,40.39,106.63,60.4
	c5.33,3,8.9,6.58,10.95,12.57c6.31,18.44,13.26,36.66,19.87,55c0.85,2.37,3.1,5-0.29,7.28c-35.02-19.54-70.14-38.9-105.04-58.65
	c-51.84-29.33-103.53-58.94-155.26-88.45C971.27,886.03,968.5,884.15,965.67,882.38z"/>
<path class="st191" d="M1620.66,1217.44c1.78-2.04,3.03-1.09,4.15,0.73c2.71,4.39,5.92,8.34,9.34,12.23
	c11.77,13.38,26.83,21.41,43.25,27.33c6.47,2.33,13.04,4.41,20.43,6.89c-4.99,6.6-8.76,13.06-14.77,17.76
	c-18.36-10.73-36.87-21.21-54.59-33.01C1620.38,1240.06,1617.94,1229.38,1620.66,1217.44z"/>
<path class="st192" d="M1620.66,1217.44c2.29,1.15,2.3,3.33,2.32,5.4c0.12,8.42,0.78,16.69,5.68,24c0.37,0.55-0.12,1.66-0.2,2.52
	c-3.32-1.99-6.9-3.66-9.9-6.05c-5.29-4.22-10.5-5.13-16.2-1.1c0.29-5.89,4.77-9.44,7.95-13.59
	C1613.39,1224.6,1617.18,1221.14,1620.66,1217.44z"/>
<path class="st193" d="M1468.87,1374.89c-4.24-0.08-7.82-2.54-7.12-5.12c0.98-3.58,4.06-3.98,7.19-3.97
	c4.49,0.02,7.56,2.18,7.14,4.99C1475.72,1373.19,1472.61,1374.96,1468.87,1374.89z"/>
<path class="st194" d="M1339.09,1442.94c4.15-0.15,8.25,2.03,7.84,4.47c-0.62,3.73-3.74,4.43-6.9,4.42
	c-3.11-0.01-6.2-0.64-7.28-4.12C1332.01,1445.29,1335.07,1443.09,1339.09,1442.94z"/>
<path class="st195" d="M1404.67,1413.47c-4.11,0.15-7.84-2.05-7.45-4.71c0.55-3.73,3.6-4.34,6.73-4.45
	c4.03-0.14,7.65,2.12,7.66,4.69C1411.6,1411.22,1408.34,1413.33,1404.67,1413.47z"/>
<path class="st196" d="M1437.33,1385.18c0.97,0.29,2.78,0.56,4.32,1.36c1.72,0.9,2.57,2.69,1.62,4.52c-1.72,3.3-5,2.67-7.93,2.64
	c-2.54-0.03-4.77-0.93-5.7-3.48C1428.72,1387.69,1432.21,1385.2,1437.33,1385.18z"/>
<path class="st197" d="M1372.92,1423.97c1.56,0.39,3.12,0.53,4.44,1.16c1.4,0.67,2.46,2.1,1.97,3.69c-1.16,3.74-4.46,3.56-7.48,3.51
	c-2.76-0.05-5.65-0.32-6.41-3.7c-0.38-1.67,0.87-2.96,2.27-3.51C1369.35,1424.47,1371.19,1424.33,1372.92,1423.97z"/>
<path class="st198" d="M1208.79,365.55c-0.06,24.91-0.1,49.81-0.18,74.72c-0.01,3.33-0.25,6.65-0.39,9.97
	c-32.06,11.17-63.71,10.72-94.57-3.99c-12.83-6.11-22.1-15.87-25.92-30.04c-1.48-26.24-0.25-52.49-0.61-78.74
	c-0.02-1.8,0-3.79,2.76-3.53l-0.09-0.1c7.71,19.27,24.58,26.83,42.61,31.89c22.5,6.31,45.32,5.43,67.94-0.26
	C1203.22,364.75,1205.99,362.89,1208.79,365.55z"/>
<path class="st199" d="M1089.88,333.95c-2.81,3.12-1.6,6.94-1.64,10.45c-0.26,23.94-0.36,47.88-0.51,71.83
	c-2.45-2.87-1.6-6.34-1.61-9.57c-0.05-24.18,0.03-48.36-0.01-72.54c-0.01-3.24,0.83-6.73-1.9-9.46c0.1-0.54,0.24-1.07,0.4-1.59
	c2.1-0.19,3.5,0.45,3.82,2.8C1088.82,328.57,1089.39,331.25,1089.88,333.95z"/>
<path class="st200" d="M1242.41,415.95c-0.13-7.94-0.26-15.89-0.38-23.83c-0.02-1.23,0.38-2.29,1.51-2.93
	C1242.3,398.08,1244.31,407.1,1242.41,415.95z"/>
<path class="st201" d="M962.58,496.35c12.83,7.1,24.81,13.62,36.69,20.33c49.63,28.04,99.22,56.15,148.84,84.21
	c18.31,10.35,36.48,20.98,55.07,30.78c6.6,3.48,8.94,7.43,8.88,14.9c-0.53,69.79-0.67,139.58-0.87,209.38
	c-0.09,29.87-0.03,59.75-0.09,89.62c-0.01,3.23,0.54,6.58-1.31,10.63c-6.46-3.52-12.58-6.73-18.59-10.13
	c-52.76-29.94-105.49-59.92-158.24-89.87c-22-12.49-43.89-25.19-66.1-37.29c-5.95-3.24-5.75-7.8-5.75-13.01
	c0.01-57.61-0.03-115.22-0.01-172.84c0.01-41.76,0.09-83.52,0.17-125.28C961.29,504.47,960.83,501.09,962.58,496.35z"/>
<path class="st202" d="M1313.43,620.26c2.21,2.93,1.56,5.77,1.56,8.44c-0.09,114.96-0.19,229.92-0.37,344.89
	c-0.02,15.88-0.16,15.7-15.04,11.23c-24.51-7.36-49.09-14.49-73.66-21.66c-7.99-2.33-8.16-2.39-8.15-10.56
	c0.07-102.16,0.14-204.31,0.22-306.47c0.01-9.2,0.11-8.84,9.55-10.46c17.7-3.03,35.3-6.59,52.97-9.8
	C1291.56,623.87,1302.64,622.09,1313.43,620.26z"/>
<path class="st108" d="M976.72,392.53c11.38,6.13,21.35,11.27,31.11,16.79c62.34,35.26,124.63,70.61,186.96,105.9
	c11.4,6.46,22.8,12.93,34.39,19.05c4.67,2.47,5.58,5.41,4.35,10.37c-6.58,26.61-12.86,53.29-19.28,79.94
	c-1.34,5.56-1.96,5.88-7.46,2.78c-13.54-7.62-26.96-15.47-40.48-23.12c-59.17-33.45-118.36-66.86-177.54-100.28
	c-7.43-4.2-14.82-8.46-22.31-12.54c-3.23-1.76-5.31-3.79-4.64-7.88C966.72,453.84,971.56,424.12,976.72,392.53z"/>
<path class="st203" d="M1407.81,556.14c-0.56,3.16-3.11,4.01-5.08,5.22c-9.09,5.56-18.28,10.94-27.41,16.43
	c-16.96,10.18-33.98,20.26-50.8,30.67c-4.15,2.57-6.68,2.11-10.06-1.31c-21.4-21.66-43.04-43.08-64.55-64.62
	c-5.51-5.52-5.53-5.77,1.13-9.75c23.77-14.22,47.61-28.3,71.4-42.48c11.76-7.01,23.56-13.97,35.14-21.27
	c3.59-2.26,5.51-2.63,7.66,1.65c13.36,26.65,26.93,53.2,40.39,79.81C1406.56,552.34,1407.14,554.4,1407.81,556.14z"/>
<path class="st204" d="M1311.05,613.54c-30.93,7.12-60.85,11.63-92.24,17.56c6.24-30.3,14.79-58.56,21.16-89.14
	C1264.23,566,1287.37,588.64,1311.05,613.54z"/>
<path class="st190" d="M1219.63,967.47c30.72,10.02,60.14,17.09,89.99,27.67c-13.05,9.03-25.32,16.21-37.55,23.47
	c-7.06,4.19-14.16,8.34-21.34,12.32c-5.05,2.8-6.39,2.48-8.33-2.6C1234.95,1008.75,1227.7,989.09,1219.63,967.47z"/>
<path class="st205" d="M969.52,392.44c-3.29,29.06-8.11,56.63-13.02,84.27c-3.33-0.23-3.59-2.67-4.46-4.34
	c-10.04-19.43-20.01-38.89-29.97-58.37c-1.42-2.77-3.03-5.58,1.67-7.12C938.41,402.07,952.9,396.74,969.52,392.44z"/>
<path class="st206" d="M1684.89,1314.68c-0.69-8.58,3.1-15.18,8.94-21.09c6.23-6.3,13.34-11.53,20.13-17.15
	c6.86-5.68,14.39-7.91,23.48-7.68c26.21,0.68,51.41-4.65,75.3-15.46c13.71-6.2,26.11-14.56,35.81-26.23
	c8.35-10.05,13.87-21.53,13.72-34.93c-0.05-4.79,1.75-7.14,6.12-8.64c5.48-1.88,10.88-3.96,16.75-4.08c2.51-0.05,4.78-0.8,7.06-1.66
	c0.34,1.78,0.8,3.55,0.99,5.34c0.95,8.81-3.56,15.31-12.13,17.6c-2.06,0.55-4.17,0.94-6.18,1.6c-10.98,3.62-11.89,4.88-12.8,16.61
	c-0.89,11.56-4.66,21.95-12.41,30.79c-2.71,3.08-4.97,4.13-9.28,2c-11.86-5.86-23.09,0.61-23.37,14.21
	c-0.16,7.88-3.79,10.29-9.93,12.76c-23.01,9.25-46.92,13.02-71.55,12.01c-7.21-0.29-12.98,1.52-18.35,6.1
	c-6.49,5.54-13.14,10.9-19.96,16.03C1693.62,1315.53,1689.65,1318.43,1684.89,1314.68z"/>
<path class="st207" d="M1845.88,1263.89c-0.93,5.16-3.64,10.85-9.45,14.42c-5.68,3.49-10.61,0.68-10.42-5.95
	c0.2-6.8,3.51-12.17,8.91-16.23c2.37-1.78,4.93-2.27,7.65-0.65C1845.23,1257.08,1846.13,1259.5,1845.88,1263.89z"/>
<path class="st208" d="M1846.5,1190.37c2.08,10.19-2.59,18.46-8.06,26.2c-5.68,8.05-13.15,14.32-21.72,19.3
	c-3.54,2.05-6.46,2.5-10.01-0.13c-3.4-2.52-7.31-4.37-11.09-6.36c-1.34-0.71-3.07-0.94-3.9,0.8c-0.64,1.34,0.52,2.3,1.52,2.95
	c3.79,2.49,7.64,4.89,12.43,7.93c-12.1,6.92-24.49,9.71-36.96,12.23c-1.79,0.36-2.75-0.78-3.34-2.37c-0.96-2.56-1.91-5.14-3.05-7.63
	c-0.77-1.68-1.94-3.43-4.14-2.39c-1.62,0.77-1.43,2.47-0.88,4c0.1,0.29,0.23,0.57,0.31,0.86c2.5,9.22,2.31,9.72-7,10.01
	c-11.17,0.35-22.42,0.98-33.39-2.01c-0.14-3.98,2.23-6.65,3.35-9.75c0.56-1.55,0.78-3.07-1.02-3.82c-1.68-0.7-2.96,0.24-3.75,1.69
	c-1.01,1.87-2.14,3.74-2.77,5.75c-1.36,4.31-4.02,5.68-8.36,4.64c-10.66-2.55-21.18-5.45-31.75-10.82
	c4.02-5.37,11.51-5.94,14.87-11.93c-5.89-2.1-9.64,1.81-12.58,4.44c-6.55,5.86-11.71,3.69-17.34-0.82
	c-8.38-6.71-16.1-13.93-21.19-23.64c-3.2-6.11-5.05-12.3-3.52-19.19c0.09-13.32,7.38-22.87,17.07-30.6
	c19.84-15.83,43.11-23.96,67.98-26.68c26.83-2.93,53.56-1.82,79.21,8.02c14.94,5.73,28.7,13.45,39.45,25.59
	C1842.8,1173.32,1846.89,1181,1846.5,1190.37z"/>
<path class="st209" d="M1846.5,1190.37c-2.88-14.07-12.07-23.63-23.1-31.69c-14.47-10.57-30.71-17.25-48.32-20.42
	c-35.96-6.47-70.95-4.09-104.26,12.19c-9.64,4.71-18.46,10.65-25.78,18.6c-5.64,6.12-10.16,12.91-11.88,21.24
	c-1.86-3.23-0.9-6.43-0.06-9.73c3.66-14.3,12.5-24.9,24.09-33.42c14.56-10.71,31.3-16.32,48.8-19.66
	c30.79-5.86,61.26-5.26,90.93,6.1c13.51,5.17,26.01,11.99,36.2,22.52c7.21,7.43,11.6,16.32,13.94,26.32
	C1847.71,1185.13,1848.1,1187.82,1846.5,1190.37z"/>
<path class="st0" d="M1047.18,1267.43c4.34-22.98,20.52-39.36,42.47-43c15.75-2.61,28.46,4.22,35.35,19.01
	c-4.55,4.15-10.16,6.69-15.31,9.9c-7.32,4.57-11.84,10.42-10.81,19.49c-3.97,7.06-0.24,12.77,3.36,18.42
	c3.42,5.37,3.49,5.29-2.31,7.78c-1.66,0.71-3.22,1.67-4.82,2.52c-9.21-16.33-24.47-24.37-41.37-30.12
	C1051.21,1270.57,1048.22,1270.63,1047.18,1267.43z"/>
<path class="st210" d="M1039.73,1290.75c1.92,7.5,6.86,13.07,11.89,18.59c-5.15,3.01-10.02,0.54-14.8-1.03
	c-3.6-1.18-6.55-3.67-6.99-7.72c-0.45-4.18,2.53-6.57,5.56-8.79C1036.73,1290.81,1038.23,1290.89,1039.73,1290.75z"/>
<path class="st211" d="M1095.83,1305.5c3.33,0.26,5.56-2.04,8.14-3.51c5.93-3.38,5.92-3.4,12.58,2.52
	c-5.55,3.61-10.21,8.36-17.42,8.18C1098.06,1310.28,1096.01,1308.32,1095.83,1305.5z"/>
<path class="st212" d="M1062.82,1305.46c-6.22-3.7-11.06-8.64-13.87-15.41c5.62-1.69,10.63-0.28,14.07,3.99
	C1066.12,1297.89,1066.21,1301.71,1062.82,1305.46z"/>
<path class="st213" d="M1127.84,1262.04c-0.02,5.57-1.55,10.83-3.38,16.02c-1.57-0.81-3.4-1.33-4.67-2.47
	c-4.37-3.95-3.83-8.84,1.3-11.5C1123.14,1263.03,1125.58,1262.7,1127.84,1262.04z"/>
<path class="st214" d="M1133.5,1278.66c1.34-5,2.67-9.99,4.01-14.99c1.23,0.82,2.58,1.49,3.65,2.47c2.55,2.35,4.49,5.27,2.42,8.62
	C1141.37,1278.35,1138.45,1281.52,1133.5,1278.66z"/>
<path class="st199" d="M1208.79,365.55c-29.2,9.61-58.34,10.72-87.37-0.67c-6.83-2.68-13.26-6.2-18.91-10.86
	c-6.39-5.28-12.07-11.2-12.73-20.17c10.75,16.47,26.48,25.27,45.22,29.61c26.83,6.22,53.01,4.5,78.63-5.81
	c8.57-3.45,15.06-9.96,22.85-14.53c-2.27,7.39-8.37,11.39-14.12,15.54C1218.25,361.63,1213.6,363.81,1208.79,365.55z"/>
<path class="st215" d="M1218.17,258.54c-2.8,7.23-8.74,11.28-15.18,14.74c-2.91,1.56-5.97,2.84-8.97,4.24
	c-16.46,3.78-33,5.48-49.66,1.51c-10.76-2.57-20.96-6.36-28.6-15.02c-2.49-2.82-4.74-5.6-4-9.69c10.6,13.76,25.36,19.07,41.95,21.31
	c11.69,1.57,23.05,0.61,34.4-2.02c9.99-2.31,18.93-6.62,26.32-13.88C1215.41,258.76,1216.35,257.1,1218.17,258.54z"/>
<path class="st216" d="M1126.8,290.05c7.2-1.25,12.63,1.23,16.46,7.51c4.36,7.13,4.27,12.2-0.31,17.87
	c-7.06,4.51-11.39-0.3-15.31-4.92C1121.74,303.56,1121.74,298.02,1126.8,290.05z"/>
<path class="st217" d="M1126.8,290.05c-4.24,14.03,2.29,24.31,16.15,25.38c-0.74,3.53-3.52,3.87-6.29,3.67
	c-11.09-0.82-19.31-17.09-13.45-26.51C1124.02,291.29,1125.22,290.35,1126.8,290.05z"/>
<path class="st199" d="M1239.98,337.42c-0.35,2.47-1.19,4.63-3.6,5.83C1236.33,340.53,1237.25,338.41,1239.98,337.42z"/>
<path class="st218" d="M2084.14,998.82c-1.19,0.92-2.36,1.86-3.56,2.75c-1.63,1.21-4.24,2.1-3.14,4.7c1.01,2.37,3.51,3.4,6.02,3.07
	c2.03-0.27,4.12-1.03,5.89-2.08c3.5-2.07,6.82-1.75,10.24-0.04c5.21-0.4,9.13,2.45,13.11,5.17c3.28,3.15,9.35,3.71,9.32,9.96
	c-4.85,5.91-10.21,11.14-17.28,14.49c-3.16,1.5-5.52,2.11-7.61-1.49c-3.64-6.25-9.48-10.13-15.49-13.76
	c-13.26-8-26.53-15.97-39.74-24.05c-2.51-1.54-5.67-2.38-6.98-5.55c2.39-5.56,8.31-6.7,12.46-10.04c8.89-7.66,14.61,0.33,21.15,4.27
	c2.8,1.22,5.36,2.84,7.86,4.57C2079.24,993.18,2083.88,993.89,2084.14,998.82z"/>
<path class="st219" d="M2112.73,1015.27c-4.79-2.01-9.04-4.9-13.14-8.04c2.99-2.04,6.52-2.62,9.88-3.66
	c4.46-2.54,8.91-5.09,9.37-11.03c2.23-2.42,4.35-4.95,6.72-7.22c3.31-3.16,3.49-3.1,4.53,1.66c0.46,2.11,2.14,2.8,3.59,3.71
	c5.86,3.69,11.77,7.28,17.69,10.87c1.76,1.07,3.62,2.01,5.29,4.45c-4.08,2.43-7.89,4.42-12.39,4.94c-8.64-3.3-16.88-3.54-24.52,2.71
	C2117.81,1015.22,2115.1,1014.83,2112.73,1015.27z"/>
<path class="st220" d="M2076,993.18c-3.48-1.07-6.37-3.17-9.24-5.3c-0.69-2.78,0.73-4.8,2.74-6.25c6.6-4.75,13.86-8.68,17.91-16.3
	c0.66-1.25,2.61-1.38,3.91,0.04c6.15,3.75,12.34,7.42,18.43,11.26c5.38,3.38,5.4,3.7,0.97,8.57c-1.39,1.53-3.1,2.78-4.67,4.16
	c-1.8-0.09-3.71,0.11-5.28-0.91c-5.62-3.66-10.7-2.78-15.61,1.45C2082.59,992.1,2079.43,993.1,2076,993.18z"/>
<path class="st221" d="M2091.33,965.36c-0.82,0.33-2.35,0.64-2.36,1c-0.28,8.05-6.96,10.44-12.24,14.09
	c-3.41,2.36-7.65,3.61-9.96,7.43c-2.05-1.2-4.28-2.16-6.08-3.63c-4.08-3.34-8.43-4.17-13.34-2.31c0.53-1.96,2.14-2.91,3.74-3.75
	c10.25-5.36,20.75-10.17,31.86-13.54C2085.88,963.76,2088.76,962.4,2091.33,965.36z"/>
<path class="st0" d="M2076,993.18c1.4-2.52,4.11-3.44,6.29-4.94c11.93-8.24,11.97-8.19,23.77,1.1c-5.97,6.27-12.79,10.56-21.93,9.48
	C2081.47,996.88,2078.14,995.88,2076,993.18z"/>
<path class="st0" d="M2112.73,1015.27c4.73-4.83,11.32-6.65,16.74-10.36c2.18-1.49,4.64-1.19,6.85,0.2
	c2.78,1.75,5.85,3.14,7.94,5.83c-7.42,3.81-14.83,7.61-22.25,11.42C2118.92,1019.99,2115.82,1017.63,2112.73,1015.27z"/>
<path class="st0" d="M2118.83,992.54c3.34,5.9,3.37,5.96-1.78,8.54c-2.38,1.19-4.73,2.67-7.59,2.49
	C2112.59,999.89,2115.71,996.22,2118.83,992.54z"/>
<path class="st222" d="M536.81,900.92c3.96-5.21,7.58-5.3,12.35-2.42c34.92,21.09,69.98,41.95,104.92,63.01
	c1.93,1.16,6.04,1.59,4.14,5.6c-1.72,3.65-4.86,4.26-9.15,1.79c-8.97-5.17-17.87-10.45-26.74-15.8
	c-25.8-15.58-51.58-31.21-77.35-46.84C542.4,904.7,539.93,902.97,536.81,900.92z"/>
<path class="st223" d="M1734.29,1198.48c-2.69-0.13-4.32-1.8-3.28-4.14c2.72-6.11-0.27-11.23-2.14-16.6
	c-1.49-4.3-3.58-8.44-3.49-13.14c0.04-1.9,0.64-3.86,2.45-4.59c2.41-0.97,4.09,0.79,5.19,2.62c1.07,1.8,1.75,3.86,2.44,5.86
	c1.47,4.32,3.11,8.61,4.19,13.03c1.84,7.55,7.04,10.37,14.11,10.3c14.33-0.13,28.58,1.36,42.86,2.04c7.9,0.37,15.77,1.22,23.64,1.99
	c2.67,0.26,5.49,0.49,7.24,3.06c-5.12,2.87-10.4,3.22-16.31,2.72c-19.28-1.65-38.61-2.77-57.97-3.04c-2.62-0.04-5.47-0.94-7.87,1.04
	l0.13-0.07C1741.65,1200.19,1737.7,1202.13,1734.29,1198.48z"/>
<path class="st224" d="M1745.35,1199.63c1.42-3.41,4.5-2.39,7.03-2.46c19.12-0.51,38.13,1.62,57.16,2.85
	c6.18,0.4,12.01-0.27,17.97-1.1c-3.54,4.8-8.76,4.38-13.75,4.14c-14.6-0.71-29.2-1.47-43.78-2.5
	C1761.77,1199.98,1753.57,1199.55,1745.35,1199.63z"/>
<path class="st225" d="M1644.05,1212.73c6.34-5.27,14.02-4.17,21.23-5.06c0.81-0.1,1.7,0.76,1.67,1.82c-0.02,0.52-0.33,1.4-0.69,1.5
	C1658.97,1213,1651.68,1215.19,1644.05,1212.73z"/>
<path class="st226" d="M1834.16,1182.81c-5.79,5.15-13.03,3.84-19.64,5.16c-1.21,0.24-2.37-0.93-2.32-2.24
	c0.02-0.65,1.03-1.74,1.71-1.83C1820.59,1182.99,1827.18,1180.45,1834.16,1182.81z"/>
<path class="st154" d="M1834.09,1212.32c-7.73,3.13-14.65-0.08-21.76-1.99C1819.93,1207.52,1827.18,1208.25,1834.09,1212.32z"/>
<path class="st227" d="M1645.85,1181.46c7.62-1.77,14.44,0.47,22.01,2.23C1662.25,1188.04,1651.18,1186.7,1645.85,1181.46z"/>
<path class="st228" d="M1670.38,1156.54c3.61-2.65,6.11-0.45,8.55,1.06c3.02,1.86,6.8,2.78,8.75,6c1.08,1.79-0.73,3.17-2.09,2.77
	C1679.63,1164.62,1674.21,1161.87,1670.38,1156.54z"/>
<path class="st141" d="M1809.47,1156.27c-3.01,5.47-8.07,7.92-13.31,10.04c-0.65,0.26-1.82-0.13-2.46-0.6
	c-0.74-0.54-0.95-1.69-0.12-2.33C1798.22,1159.72,1802.83,1155.96,1809.47,1156.27z"/>
<path class="st229" d="M1765.87,1140.77c1.24,0.33,2.53,0.99,2.23,2.33c-0.93,4.09-2.06,8.22-5.62,10.91
	c-1.34,1.01-3,0.55-3.69-1.11c-0.83-2.01,3.24-10.82,5.35-11.83C1764.65,1140.82,1765.29,1140.85,1765.87,1140.77z"/>
<path class="st230" d="M1716.16,1140.99c1.43,0.02,2.57,0.54,3.09,1.67c1.37,2.98,2.66,6,3.78,9.08c0.41,1.13-0.02,2.5-1.3,2.93
	c-0.72,0.24-1.91,0.1-2.49-0.37c-3.45-2.82-4.72-6.78-5.16-11.02C1713.95,1141.98,1714.93,1141.14,1716.16,1140.99z"/>
<path class="st231" d="M1734.29,1198.48c3.73,0.36,7.46,0.72,11.19,1.08C1739.78,1202.81,1737.75,1202.62,1734.29,1198.48z"/>
<path class="st232" d="M1135.26,300.88c1.35,0.22,2.1,1.09,1.8,2.37c-0.18,0.78-1.15,1.47-2,0.96c-0.62-0.37-1.17-1.23-1.3-1.95
	C1133.59,301.36,1134.22,300.76,1135.26,300.88z"/>
</svg>
